/* XPM */
static char *e801ba39a8904ac29759f13019ba4bd5s4gP26bjyEvz8wYS[] = {
/* columns rows colors chars-per-pixel */
"64 64 144 2 ",
"   c #246612",
".  c #286615",
"X  c #266B13",
"o  c #296D15",
"O  c #2C6718",
"+  c #2D6E19",
"@  c #316E1B",
"#  c #2C7316",
"$  c #2E7916",
"%  c #2E7319",
"&  c #2F7918",
"*  c #307617",
"=  c #317C16",
"-  c #32751B",
";  c #347C1B",
":  c #387E1E",
">  c #367520",
",  c #377B20",
"<  c #3A7D21",
"1  c #358316",
"2  c #398917",
"3  c #36811B",
"4  c #3A841D",
"5  c #3C8A1D",
"6  c #3F901C",
"7  c #3C8421",
"8  c #3E8822",
"9  c #3E8920",
"0  c #3F8C20",
"q  c #3F8C21",
"w  c #3E8A21",
"e  c #3F9022",
"r  c #418E1F",
"t  c #408F1F",
"y  c #408D1F",
"u  c #43931F",
"i  c #43951E",
"p  c #42921E",
"a  c #408720",
"s  c #418524",
"d  c #408821",
"f  c #408B20",
"g  c #418822",
"h  c #408A23",
"j  c #418C20",
"k  c #408D20",
"l  c #418C21",
"z  c #418D21",
"x  c #428F21",
"c  c #408C22",
"v  c #418C22",
"b  c #408C23",
"n  c #408D23",
"m  c #428C23",
"M  c #428D23",
"N  c #438E23",
"B  c #428A24",
"V  c #428A26",
"C  c #428B26",
"Z  c #418D24",
"A  c #428D25",
"S  c #448D25",
"D  c #448E24",
"F  c #448C26",
"G  c #428C23",
"H  c #428529",
"J  c #468D29",
"K  c #488B29",
"L  c #429120",
"P  c #429021",
"I  c #429022",
"U  c #429122",
"Y  c #439122",
"T  c #429023",
"R  c #459122",
"E  c #459322",
"W  c #459323",
"Q  c #469322",
"!  c #449420",
"~  c #449422",
"^  c #449522",
"/  c #459423",
"(  c #469423",
")  c #479722",
"_  c #469623",
"`  c #459124",
"'  c #459025",
"]  c #469125",
"[  c #459325",
"{  c #459126",
"}  c #479326",
"|  c #469424",
" . c #479524",
".. c #469425",
"X. c #479724",
"o. c #479526",
"O. c #479726",
"+. c #459323",
"@. c #489724",
"#. c #489625",
"$. c #499727",
"%. c #499626",
"&. c #469821",
"*. c #469822",
"=. c #479822",
"-. c #469921",
";. c #4A9823",
":. c #499B23",
">. c #489824",
",. c #489825",
"<. c #499A25",
"1. c #4A9B25",
"2. c #499826",
"3. c #4B9826",
"4. c #4A9A26",
"5. c #4A9C25",
"6. c #4C9D26",
"7. c #4D9D27",
"8. c #4A9B25",
"9. c #479228",
"0. c #489029",
"q. c #489428",
"w. c #499628",
"e. c #4A9628",
"r. c #4A9429",
"t. c #4B9A28",
"y. c #4C9A28",
"u. c #4E9A29",
"i. c #4E9C2A",
"p. c #4D9B29",
"a. c #519F2B",
"s. c #519D2C",
"d. c #529B30",
"f. c #4CA024",
"g. c #4FA02A",
"h. c #4FA128",
"j. c #50A227",
"k. c #51A427",
"l. c #52A02C",
"z. c #54A42C",
"x. c #52A32B",
"c. c #54A829",
"v. c #58A92E",
"b. c #5BAD31",
/* pixels */
"% - ; + 7 q.; 3 } * 5 4 } 3 7 ; ! & & 4 > 3 ; ;   7 D 7 ; 7 D ; w 7 o.: 4 7 ; & 3 7 > ; & # ; w B - 3 u.; 3 7 ,.: 5 1 w ; ; 3 7 ",
"X 2 w ; 5 Y = # 1 d 5 = ; u + ,.t.5 X X ; % $ +.w : D 2 X 1 4 c 1 % ! ; 3 g.:.# o - ; X 5 w - ^ 5 # * 3 c 5 ; 4 w # s.3.3 X # < ",
"} ; + @.# ; >.&.d c % ; % : ; ; ; O 4 + B 3 5 + o.# % w &.+.+.3 $ ; ; ; ; 3 + : 3 - 3 o.- - c # : ,.@.c 5 $ = % : ; 2 - + 7 + 5 ",
"% : c z.3 % 1 u d 1 5 y 7 3 ^ 7 w i.5 D 7 ; * 7 x.! # 3 5 5 4 ; 5 ,.- D c w q.5 5 w 5 # < t.6.; % 2 6 d 3 : #.3 w Y B 7 O.2 D 4 ",
"; 5 c 5 % ,.,.5 } # u c ,.: >.,.* : 3 V 7 w 3 c c & 7 h.5 c.  2 } 6.7 y } ! % : 7 J d ; w } 3 ; ^ ^ ~ w % ^ 5 ,.3 } ,.% 3 : 9.9 ",
": : D 4 : 1 1 3 % y @.5.d : 3 $ J y D 3 9.3 : w w ; 3 1 3 = 3 5.o.#.* 3 ; w 2 } 4 < 4 7 4 +.; 3 1 1 3 * u ^ u.4 : 3 ; D +.7 ; t.",
"! c c < : 7 < 3 c >.u.= 3 5 1 X s.3 7 D +.4 } y - w 4 7 3 s ! h.3 2 3 = % F } ; s ! : ,.w : w : 7 7 3 D >.o.= 3 4 $ & i.4 , D D ",
"} X 5 ; } 7 % c 7 # u.3 D < 1 y 7 5 ^ %   4 % w < : q.& 3 } + 5 } 3 J # >.- ! ^ 3 X X o.* 3 ; t.< % } ; $ 6.; s.# 5 4 V 6 ^ o o ",
": 3 9.3 $ w w #.- : % 5 # ; 7 3 ; $ 3 - ; ; ; D 8 1 3 7 } 4 > 3 3 $ & 7 5 ; % 4 - ; ; - 7 q.: $ V 8 } - , 3 3 o 3 w 1 , ; ; ; 1 ",
"+ o.< 4 u - 4 w 5 3 B 7 4 7 w 4 # 3 ; 3 H - d 7 w 7 3 3 3 } 3 B , d % D 5 # % 2 2 < J - D w ; 5 ; 3 B 5 ; D ; < F 3 - # 5 3 - J ",
"} o.D w ! ; 7 5 B ; u ; o.; &.o.5 w ~ 4 < D o.! t.d 4 ; c q.# u 4 7 3 ! 6.4 c u ! ; s #.! q.5 d 3 7 y 3 3 u - #.3 ^ w w Y >.; , ",
": = } 3 4 o : : B ; 4 w # 3 i 4 w t.c B ; - ; y w 3 * * 5 7 * 7 3 : % e c 4 o.c B 4 * : ; D 3 3 % 7 ; 4 7 % K X 5 ~ 5 +.} 9.w & ",
": - : 7 < = ; 7 D 5 1 9 o o ; } 4 # X ; ; 3 ; 4 % F $ ; 3 B 5 5 : ; o ; 7 5 & X o 3 : : ; % 0.; ; ; 4 5 5 = 5 X * 3 B : # # ; $ ",
"3 D 2 ; % * = 4 ; ! $ w o D 3 } y ; 3 3 + 7 3 ^ > ; X ; ; & ,.3 3 * : D 3 l.; 3 7 3 * 4 } * 3 o ; $ 3 w 5 1 4 X J 3 @.5 ; w ; % ",
"; u.w B ^ ^ s 5.3 h.$ w ! c.7 7 ; o.9.: #.; c c D D 5 g.B 3 c.7 3 3 z.d 4 7 ^ d 3 B 7 3 #.c D u #.7 ^ Y u.* ; 6.y.s 5 3 } D ; #.",
"= 7 - 7 J 3 3 3 ; o.3 w s * 6 5 ; ,.7 3 4 3 w % 8 7 3 w ; y 3 5 5 ! < = 6 * } } 7 ; w 3 3 : < d d - 5 ; ,.1 5 B # u - 4 ,.7 ; c ",
"< o < x.# > X % - : ; 4 d 7 ; 3 - + 4 # - : , % t.7 & + # - 3 X ! 4 D # D % + 4 % ; % 7 ; 3 i.X 7 o - ; % 2 w B & 3 : - - : # < ",
": % : y.X c h.8 X &.! 0.7 3 c 5 0.} ;   7 d - ; D ; % x.D + 6 w ^ J 3 d c +.0.w   # D > * ; #.X #.,.7 # ~ c d.$ 7 o.d r.D *   w ",
"; ; 2 * 3 7 7 & 5 1 u #.} >.4 7 s.3 < 7 8 * % 2 ; 3 7 ; , , 3 6 ^ } u.c 2 F ^ : : w * ; 2 : & 7 - < - 5 2 u i.0.,.; 5 a.3 , 7 9 ",
"3 7 ^ D < & 4 w 3 u ; D & #.; D ; y o ,.+.: 3 ^ 7 F - 3 w 3 &.% #.- 4 c B ; d X w t.; 7 d 7 } , * 5 4 5 5 7 7 % 6.: d 3 ; & t.5 ",
"4 +.! } ! i.5 ; ^ y 3 0.5 $ d c 8 7 3 t.; w 3 o.y.5 6.&.& w &.; 7 s.o 5 7 } 7 ; i.1 7 3 ! q.8 ^ 6.2 ; >.3 : s.* 3 8 ! 7 7 w o.3 ",
"  ; , 3 } i.D D q., 3 - w & w ; +.;   7 - 3 & : - } i.0.7 { D 1 : : 3 3 7 2 3 % ; : w   ; - w y.r.s 0.} y - * c & c ; c :   9 8 ",
"& 2 ; X 4 : # o 2 ; 4 = D t.; w +.1 % 1 > - 3 3 - * 4 - X ; w ; 3 & z.7 3 } 6 X = : > & 2 ; o c - X * y - 5 * ,.q.& c ^ $ & & > ",
"5 : : c 3 } i 5 : ! 3 1   % + &.q > 3   D ; 3 < c = D ^ 2 w 5 c = # % + 3 o.7 : ; - 4 4 7 ; 5 3 } 5 y 3 ^ = = o & + >.8 : ; + +.",
": < - z.; # 5 ! } 5 3 w : c 5 - : , 3 5 5 3 ; - i.! X 3 ~ w ~ 1 5 4 7 w : : : $ 2 7 3 ; ; B i.& % ! 5 o.5 3 e , w 5 < ; ; 1 4 2 ",
"# 3 y.! = 4 5 i ! X w 5 ^ : 6.,.8 h.5 7 7 3 ; q.y.3 3 y 5 c.X = w k.* ^ t.} } #.7 B w # d i.5 1 3 5 6.7 # 7 ! q s ,.6.s 6.4 D 7 ",
"< & 7 ; : ! 5 2 5 - #.^ ^ : 5 5 3 5 7 D V 8 ; ; 4 % c u 3 6 % u ^ o.: 4 y 5 3 4 B V w : 3 w o 7 e 5 2 ; 1 ~ e +.3 5 5 3 5 4 V J ",
"! w } d - 3 4 ; = 5.Y u 3 4 % # s.- 7 7 t.4 d #.s 5 % 5 : ; 5 h.y u ; $ # 0.w 7 3 D 4 Y w 8 } % 3 3 , 1 5.! +.3 3 # ; 0.7 : 7 t.",
"u , 4 ; B 7 & 7 D 3 x.; ! 7 1 ; J 5 ^ ; . 3 7 y - : t.& ; q.; ,.D 2 } $ 5 ; #.5 7 %   :.7 * 3 9.4 & c B 3 l.% t.& 2 * +.5 c ; o ",
"7 # B : 3 7 7 w 7 % & w ; > w 5 : 3 ; ; * ; # 7 D ; 7 3 7 w ; $ 7 $ < , ^ 3 ; d - - % : ; 9.; 4 w 7 5 7 # 4 4 ; ; D 5 7 4 ; , = ",
"% D F ; 2 ; : w.; w 3 w : 7 3 ; + = 3 ; F - w 9.7 3 ; : w D ; D 7 3 - q ; # & ; 2 < V & D F * 4 < ; w.- 9 8 7 - F & # ; : 2 ; J ",
"7 @.D 5 o.5 8 5 w ; 6.; 7 & D +.; 5 u ; > 7 9.Y o.4 u 7 w +.% ,.7 7 * w ,.= 4 u 4 - H 8 ~ o.2 u w 7 5 w 4 e & J & +.5 ; ~ 5 % < ",
"#.c D D 3 X 9 : 7 & 4 : 3 5 i } o.#.>.D 3 ! w D #.3 o = c w % 3 & 7 $ 5.:.c } o.q.4 w Y y q.3 :   } ; : ; $ < # i :.c q.o.z.5 3 ",
"o   ; 4 w $ ; 8 D 5 3 ^ # o 5 5 ; 3 o % %   % ; % D 3 1 7 J 3 c 5 ; o ; 5 : 4 # X : o # # o ! 4 3 ; d 5 i ; D # o 5 : 7 ; X $ # ",
"w } 4 3 + & + 5 4 ! = ;   : ; 0.5 o 3 c ; c 7 ! - < o % - 2 ^ 2 % # & : 7 ,.X & w 5 : w D - d o ; # 4 w 5 $ :   3 : o.3 # w 5 ; ",
"* c 3 7 5 3 8 ! 3 q.# D 5 x.7 d 2 w 7 ; 4 ; 4 w < 5 % } w ; l.: 4 4 o.D 3 +.5 8 ; 5 ; ; c 4 d 5 3 3 w ! d ; 4 w s.w w 3 5 7 ; 7 ",
"5 D ; 7 o.Y s y * 6.5 4 c 5 5 5 * i.F 7 D 7 ^ > D 7 w i.3 2 s q.3 5 D 3 6 ; } } D , +.w 7 7 : ~ i., y : s.3 3 } 3 u ; 3 i.} ; q.",
"- : < i.- - X * : ; = w c : 3 5 > 3 3 % * - 3 ; i.7 ;   % 3 3   ^ 5 D $ w * ; w % % # ; 7 w q.o ; o ; 3 = ; u 0.; 5 : < 3 ; o ; ",
"7 X ; y.# : c B o ~ 5 w w : } 5 7 7 F X 7 q.- - ^ ; # D w - 5 4 w D 9 4 >.: > D ; ; 0.; # ; q.# 7 5 7 - 5 5 q.4 ; &.3 < 7 7 # 9.",
"3 3 4 , * Y D ; 3 2 ^ q.B ^ * 3 x.w & % 5 - : 2 ; ; : } 3 < 2 6 >.F 5 5 ; J c.;   3 : 7 1 ; 7 * } B ; 3 2 &.r.7 o.% 7 v.9 # & 7 ",
"* - 3 5 > * 8 7 ; ! 3 y.; ^ 7 5 e 3 + 7 & o o 5 3 < - 7 7 ; c ; x.: w 5 w 2 c   4 7   # : 3 4 ; & d 3 3 ! 7 o.; Y 7 5 u % & 7 # ",
"D u.j.q.D Y 3 : u c ; < : c ; #.7 d & z.+.q 8 g.u.} c 5 ; 4 &.& ; V ; w B B d : t.t.7 +.t.:.9.c Y ; : ^ 3 ; 7 ; ^ : o.s 5 3 z.D ",
"o 4 3 y Y z.} < ! 7 : 7 3 # d 2 D * # +.& 5 & 4 c 5 l.u.< ! D 2 < 4 # 4 7 y < # 7 & e X 4 7 ! h.u.s s #.y - 3 ; # D 2 w : % +.7 ",
"- ; :   w d : 3 } % 3 3 #.c 7 ; ! ; * 4 < , 3 :   ; c : ; 4 D % 5 7 h.< 3 y 2 & 5 7 < 3 ; + # 5 4 ; 3 } * 3 5 t.w : 3 c 1 & 7 7 ",
"# 5 7 3 4 Y 2 % 1 c 5 = * 5 % 5.q.3 % . < & ; 5 w ; B u # 3 4 ! 3 # 2 ; 7 ,.o.& # % : # 5 4 : w d = = 2 +.7 # & 7 % t.t.; # X 7 ",
"d ; + 6.% = ^ 5.,.5 ; 2 - w ; - : + 3 & 4 4 7 o #.1 & 4 :.o.>.& 1 ; 7 , ; 3 @ ; : - 3 7 * ; ^ # = u.Y u.2 ; 4 & 4 3 3 % % 3 + 3 ",
"% ; t.l.2 # 1 u 4 # 5 w D , ,.d +.b.2 8 7 1 o 0.x.o.% 1 5 5 $ & 7 h.; } } c z.&.; +.4 # 7 g.i.; % 3 u 3 $ 3 t.4 B o.{ { g.2 +.7 ",
"; 2 3 3 : u.Y 2 c + @.e 6.: Y ,.& ; : o.w d ; 4 4 & ! h.2 h.  5 #.>.7 5 +.w % * D } q ; 7 5 & 5 5.u 5 7 $ 6.5 t.; ! t.# & 7 w.8 ",
"< 5 #.s # 1 2 : # :.5 &.4 7 ; # J 4 D - u.: 7 o.} - * 2 3 # 5 :.5 o.- 3 & F 4 #.; 7 3 8 w o.< % 1 5 - = :.5 o.: 4 & & F } 7 # u.",
"@.s 5 ; 7 7 , w c e d.$ w 5 1 # y.5 d d 4 1 o.4 - 3 w : 7 F 5 i.w 2 w = = d #.3 7 w * 6.4 : 4 7 ; 3 c D ! t.$ +.3 3 * t.4 7 D 7 ",
"} o 7 ; e 9 % q 7 # ! 4 4 > 3 i < 5 5 ; X 4 # w 7 ; J ; : +.+ 2 7 3 H % ,.; y c 3 + o c ; 3 ; D 7 * c 7 # ! ; B + w 5 7 5 y & o ",
"& 7 #.- $ 7 7 o.- 7 ; w & 7 4 = * % ; ; w - : 9.7 3 3 : D B > 5 3 3 * 7 3 * # 3 ; , 7 - 8 q.= ; s 3 } - : 7 4 # 9 1 # : ; 3 - w ",
"- #.; 4 5 4 D 9 5 ; q.: ; , 8 9 o 3 5 ; 7 > ! 3 5 w 1 D 5 ^ $ 0.: w X V c # % y 3 ; K - y 4 4 2 7 c w 5 ; D ; ; 7 w 3 o 5 2 * H ",
"l.o.q.8 ! % 7 4 d 3 5 ; ! 3 :.o.o.F ~ 5 > t.} 6.q.7 ; # w { * 5 3 7 3 ^ i.c @.u ,.; D s.o.i.3 w % d 5 7 4 2 - u 5 6.D t.} 6.; : ",
"+ * 3 1 7 # & 7 D 3 3 D # % e 3 7 +.2 7 ;   ; ; ; 5 : % 7 J & B 3 ; * 5 5 : 0.3 3 3 o * % ; 2 4 % ; 7 4 B % c X ; 6 ; w D 5 7 $ ",
": 3 7 7 - ; - 5 7 5 = 3 X & ; #.5   # 3 - 5 - c ; s # & 3 7 5 3 * = o ; 7 D # # - 5 3 : 7 ; J % 1 ; 4 7 3 = 5   ; ; } ; o * ; 3 ",
"3 c 3 : = ; 3 w ; o.$ } % 0.7 ! 4 4 3 3 % ; 4 ! - 3 X 7 4 ; 6.: w : 7 V ; #.; 4 7 ; * 3 c ; 4 & ; ; 7 w d 3 w # 0.5 } - 5 7 ; * ",
"3 i.7 d ^ ^ H ^ 2 i.3 7 } 6.3 w 3 O.o., i.3 o.s } w 5 a.w 1 6.D : 3 c.4 5 7 o.! 7 7 D w } c 7 u 6.< i 5 i.- ; h.! w 4 7 #.#.* s.",
"- y ; D d ; ; ; 3 w 3 w d : u 5 - D 3 : 3 ; c % } 7 ; ; * 5 : 3 u y s 3 y - 7 w 3 ; : 3 4 7 7 7 3 ; 7 ; w 3 5 J $ ~ ; < c , ; w ",
"7   - l.X < % ; + 7 3 3 d ; ; 3 > * 7 % < 7 - + #.3 & > & - 3 % 5 5 s # o.% + 8 # : : 7 % - a.o < # ; ; ; 2 w d & 4 3 - ; 3 % 7 ",
"s ; ; c # ! t.7 * u Y 0.4 w 7 7 y.D :   4 7 4 ; 7 ; ; 6.D > 5 c ^ D 4 B 5 F u.5   & c < : & D o o.o.7 - y y s.; F 5 7 i.D - X 4 ",
"* * 3 ; 3 3 7 % 3 2 u q.} h.5 5 j.; ; 7 : # X 5 ; ; 7 3 ; ; 2 5 #.w l.! 5 Y d - 3 7 o % = 1 ; 3 3 7 * 3 y 5 3.} ,.5 5 6.; ; 7 ; ",
"5 } 5.#.: ; 5 w 3 ! ; 7 * y & D : w # i.o.3 D >.D D - : d 3 u # D 3 * 4 B : D + c l.3 w o.c 0.< ; w 4 5 2 7 s # Y - D 7 3 & x.+.",
"- D c c i l.^ 7 >.s : F 5 X 7 y c 4 ; i.# 5 ; c i.3 h.6.3 o.>.; < u.X 3 3 @.B = t.; 4 ; w #.2 5.6.w 8 6.: ; D ; # 7 w B w , o.; "
};
